<svg xmlns="http://www.w3.org/2000/svg" version="1.1" xmlns:xlink="http://www.w3.org/1999/xlink" xmlns:svgjs="http://svgjs.dev/svgjs" width="80" height="80"><svg width="80" height="80" viewBox="0 0 80 80" fill="none" xmlns="http://www.w3.org/2000/svg">
<path d="M3.07885 41.9543C3.08385 34.8952 4.96062 27.9636 8.51783 21.8663C12.075 15.7689 17.1854 10.7239 23.3281 7.24548C29.4707 3.76706 36.4258 1.97968 43.4845 2.06555C50.5431 2.15142 57.4527 4.10748 63.5088 7.7343C59.1586 4.54129 54.2058 2.26392 48.9501 1.03992C43.6944 -0.184068 38.2451 -0.329237 32.9317 0.613198C27.6183 1.55563 22.5513 3.56609 18.0372 6.52295C13.5231 9.47981 9.65566 13.3216 6.66889 17.816C3.68211 22.3104 1.63805 27.3639 0.660345 32.6709C-0.317359 37.9779 -0.208385 43.4281 0.980674 48.6918C2.16973 53.9555 4.41417 58.9233 7.57821 63.2947C10.7422 67.6661 14.7601 71.3502 19.3888 74.1243C14.3321 70.4223 10.2198 65.5798 7.38591 59.9902C4.55199 54.4005 3.07636 48.2213 3.07885 41.9543Z" fill="#39B5FD"></path>
<path d="M45.009 77.1343C38.3754 77.1397 31.8592 75.384 26.1264 72.0466C20.3935 68.7091 15.6494 63.9095 12.3788 58.1382C9.10822 52.3669 7.42841 45.8308 7.51102 39.1977C7.59363 32.5646 9.43568 26.0723 12.849 20.3843C9.86136 24.4723 7.73308 29.1234 6.59256 34.0567C5.45205 38.99 5.32296 44.1032 6.21308 49.0877C7.10321 54.0723 8.99409 58.8248 11.7716 63.0584C14.5491 67.292 18.1557 70.919 22.3735 73.7203C26.5914 76.5216 31.3332 78.4393 36.3127 79.3575C41.2921 80.2757 46.406 80.1754 51.3456 79.0628C56.2853 77.9501 60.9482 75.848 65.0531 72.8835C69.1579 69.919 72.6195 66.1535 75.229 61.8143C71.752 66.5651 67.2032 70.4285 61.9522 73.0905C56.7012 75.7525 50.8962 77.1379 45.009 77.1343Z" fill="#73CF78"></path>
<path d="M77.4287 40.4944C76.9044 46.6497 74.756 52.5557 71.2029 57.6093C67.6499 62.663 62.8195 66.6833 57.2048 69.2598C51.5901 71.8363 45.3923 72.8768 39.244 72.275C33.0957 71.6732 27.2173 69.4507 22.2087 65.8344C25.7655 68.9241 29.9111 71.2617 34.3955 72.7062C38.88 74.1507 43.6105 74.6723 48.3019 74.2396C52.9934 73.8068 57.5486 72.4286 61.6931 70.1881C65.8376 67.9475 69.4856 64.891 72.4171 61.2028C75.3487 57.5146 77.5031 53.271 78.7505 48.7277C79.998 44.1845 80.3126 39.4358 79.6755 34.7677C79.0384 30.0996 77.4627 25.6088 75.0435 21.566C72.6242 17.5232 69.4114 14.0122 65.5987 11.2444C69.7349 14.8437 72.9623 19.3691 75.018 24.4521C77.0738 29.535 77.8998 35.0317 77.4287 40.4944Z" fill="#F6D828"></path>
</svg><style>@media (prefers-color-scheme: light) { :root { filter: none; } }
@media (prefers-color-scheme: dark) { :root { filter: none; } }
</style></svg>