<svg width="389" height="80" viewBox="0 0 389 80" fill="none" xmlns="http://www.w3.org/2000/svg">
<path d="M107.87 32.79V54.64H102.14V32.79H95.6101V27.94H114.4V32.79H107.87Z" fill="#39B5FD"/>
<path d="M144.27 41.34C144.283 43.2004 143.919 45.0442 143.2 46.76C142.498 48.4527 141.453 49.9815 140.13 51.25C138.771 52.5379 137.179 53.5559 135.44 54.25C133.727 54.9531 131.892 55.3132 130.04 55.31C128.408 55.3074 126.788 55.0267 125.25 54.48C123.714 53.9391 122.278 53.1485 121 52.14C119.364 50.8582 118.045 49.2178 117.143 47.3453C116.241 45.4728 115.782 43.4182 115.8 41.34C115.786 39.4837 116.147 37.6438 116.86 35.93C117.572 34.2353 118.628 32.7065 119.96 31.44C121.303 30.1461 122.886 29.127 124.62 28.44C126.327 27.7352 128.153 27.3619 130 27.34C131.862 27.342 133.706 27.7053 135.43 28.41C137.16 29.1042 138.742 30.1224 140.09 31.41C141.416 32.6819 142.464 34.2139 143.17 35.91C143.9 37.627 144.274 39.4742 144.27 41.34ZM130 50.26C131.124 50.2922 132.241 50.082 133.277 49.6437C134.312 49.2054 135.241 48.5493 136 47.72C137.595 45.9855 138.446 43.6949 138.37 41.34C138.428 39 137.579 36.7283 136 35C135.23 34.1815 134.3 33.5293 133.268 33.0836C132.236 32.6378 131.124 32.4078 130 32.4078C128.876 32.4078 127.764 32.6378 126.732 33.0836C125.7 33.5293 124.77 34.1815 124 35C122.401 36.7372 121.544 39.0299 121.61 41.39C121.55 43.734 122.408 46.0087 124 47.73C124.761 48.5559 125.691 49.2091 126.726 49.6455C127.761 50.082 128.877 50.2915 130 50.26Z" fill="#39B5FD"/>
<path d="M148.53 54.64V27.94H155.09C158.6 27.94 161.18 28.61 162.86 29.94C164.54 31.27 165.36 33.34 165.36 36.14C165.417 37.2783 165.22 38.4151 164.785 39.4682C164.349 40.5214 163.685 41.4646 162.84 42.23C160.855 43.7969 158.364 44.5799 155.84 44.43H154.27V54.63L148.53 54.64ZM154.27 40H155.09C156.307 40.0929 157.517 39.7373 158.49 39C158.876 38.5873 159.169 38.0978 159.352 37.5635C159.535 37.0292 159.602 36.4622 159.55 35.9C159.595 35.3716 159.523 34.8398 159.34 34.3421C159.157 33.8444 158.867 33.3931 158.49 33.02C157.495 32.3357 156.293 32.0176 155.09 32.12H154.27V40Z" fill="#39B5FD"/>
<path d="M168.74 54.64V27.94H174.45V40L183.36 27.91H190L180.4 40.1L190.31 54.64H183.43L174.43 40.64V54.64H168.74Z" fill="black"/>
<path d="M218.41 41.34C218.419 43.1999 218.055 45.0428 217.34 46.76C216.634 48.4532 215.586 49.9819 214.26 51.25C212.904 52.5378 211.316 53.5559 209.58 54.25C207.867 54.953 206.032 55.3132 204.18 55.31C202.548 55.3081 200.928 55.0274 199.39 54.48C197.833 53.9332 196.38 53.1287 195.09 52.1C192.764 50.1999 191.111 47.6023 190.374 44.6905C189.638 41.7788 189.857 38.7074 191 35.93C191.716 34.2374 192.771 32.7093 194.1 31.44C196.12 29.4828 198.667 28.1567 201.428 27.6239C204.19 27.091 207.047 27.3747 209.65 28.44C211.38 29.1342 212.962 30.1524 214.31 31.44C215.636 32.7141 216.687 34.2453 217.4 35.94C218.09 37.6556 218.433 39.4909 218.41 41.34ZM204.18 50.26C205.304 50.2915 206.421 50.081 207.456 49.6428C208.492 49.2045 209.421 48.5488 210.18 47.72C211.771 45.9839 212.618 43.6935 212.54 41.34C212.59 38.9959 211.729 36.7237 210.14 35C209.389 34.1579 208.462 33.4899 207.426 33.0426C206.39 32.5952 205.268 32.3794 204.14 32.41C203.013 32.3841 201.894 32.6012 200.859 33.0464C199.824 33.4915 198.896 34.1544 198.14 34.99C196.536 36.7238 195.677 39.0189 195.75 41.38C195.666 43.7355 196.51 46.0299 198.1 47.77C198.876 48.597 199.82 49.2474 200.869 49.677C201.918 50.1067 203.047 50.3055 204.18 50.26Z" fill="black"/>
<path d="M222.66 54.64V27.94H228.37V49.79H237.49V54.64H222.66Z" fill="black"/>
<path d="M240.53 54.64V27.94H256.25V32.75H246.25V38.24H256.25V43.09H246.25V49.79H256.25V54.64H240.53Z" fill="black"/>
<path d="M259.58 51.25L262.75 47.65C263.129 48.6178 263.804 49.4406 264.68 50C265.578 50.5657 266.619 50.8608 267.68 50.85C268.815 50.9097 269.935 50.5739 270.85 49.9C271.23 49.5896 271.532 49.1946 271.732 48.7466C271.931 48.2986 272.023 47.81 272 47.32C272 46.06 270.703 44.8033 268.11 43.55C267.27 43.15 266.61 42.82 266.11 42.55C264.278 41.7073 262.638 40.4993 261.29 39C260.38 37.8112 259.903 36.3468 259.94 34.85C259.921 33.803 260.149 32.7662 260.604 31.8231C261.059 30.88 261.729 30.0569 262.56 29.42C264.506 27.9418 266.909 27.1917 269.35 27.3C270.793 27.2609 272.226 27.5516 273.54 28.15C274.776 28.768 275.844 29.6775 276.65 30.8L273.28 34C272.926 33.2778 272.37 32.6735 271.68 32.26C270.947 31.8534 270.118 31.653 269.28 31.68C268.296 31.6372 267.327 31.9376 266.54 32.53C266.215 32.7948 265.956 33.1312 265.782 33.5128C265.609 33.8944 265.526 34.311 265.54 34.73C265.54 36.1433 266.917 37.4333 269.67 38.6L270.93 39.14C272.831 39.9299 274.537 41.1242 275.93 42.64C276.994 43.8771 277.573 45.4582 277.56 47.09C277.611 48.2181 277.408 49.3433 276.965 50.382C276.521 51.4207 275.85 52.3463 275 53.09C273.059 54.6622 270.605 55.4601 268.11 55.33C266.302 55.3802 264.507 55.0177 262.86 54.27C261.467 53.6477 260.315 52.5872 259.58 51.25Z" fill="black"/>
<path d="M309 41.34C309.008 43.1999 308.645 45.0428 307.93 46.76C307.228 48.4527 306.183 49.9815 304.86 51.25C303.501 52.5379 301.909 53.5559 300.17 54.25C298.457 54.9531 296.622 55.3132 294.77 55.31C293.138 55.3081 291.518 55.0274 289.98 54.48C288.426 53.9285 286.973 53.1243 285.68 52.1C284.048 50.8156 282.731 49.1745 281.831 47.3024C280.932 45.4303 280.473 43.377 280.49 41.3C280.478 39.4449 280.835 37.6059 281.54 35.89C282.256 34.1948 283.315 32.6661 284.65 31.4C285.993 30.1061 287.576 29.087 289.31 28.4C291.044 27.6954 292.898 27.3321 294.77 27.33C296.632 27.332 298.476 27.6953 300.2 28.4C301.929 29.0966 303.51 30.1145 304.86 31.4C306.186 32.6719 307.234 34.2039 307.94 35.9C308.658 37.623 309.018 39.4736 309 41.34ZM294.77 50.26C295.894 50.2922 297.011 50.082 298.047 49.6437C299.082 49.2054 300.011 48.5493 300.77 47.72C302.361 45.984 303.208 43.6935 303.13 41.34C303.183 38.9971 302.327 36.7247 300.74 35C299.97 34.1815 299.04 33.5293 298.008 33.0835C296.976 32.6378 295.864 32.4078 294.74 32.4078C293.616 32.4078 292.504 32.6378 291.472 33.0835C290.44 33.5293 289.51 34.1815 288.74 35C287.141 36.7372 286.284 39.0299 286.35 41.39C286.266 43.7455 287.11 46.0399 288.7 47.78C289.475 48.6039 290.418 49.2516 291.466 49.6795C292.513 50.1074 293.64 50.3053 294.77 50.26Z" fill="black"/>
<path d="M319.27 53.21C319.078 53.0196 318.949 52.7757 318.898 52.5102C318.847 52.2448 318.878 51.9702 318.986 51.7225C319.094 51.4749 319.275 51.2657 319.504 51.1225C319.733 50.9792 320 50.9086 320.27 50.92C320.447 50.9171 320.622 50.9501 320.785 51.0172C320.949 51.0842 321.097 51.1839 321.22 51.31C321.471 51.5628 321.611 51.9042 321.611 52.26C321.611 52.6158 321.471 52.9572 321.22 53.21C321.097 53.3361 320.949 53.4357 320.785 53.5028C320.622 53.5698 320.447 53.6029 320.27 53.6C320.085 53.6119 319.9 53.5832 319.727 53.5158C319.554 53.4484 319.398 53.344 319.27 53.21Z" fill="black"/>
<path d="M332 50.36V53C330.875 53.5619 329.607 53.7746 328.359 53.6106C327.112 53.4467 325.942 52.9137 325 52.08C323.829 50.9031 323.171 49.3103 323.171 47.65C323.171 45.9896 323.829 44.3968 325 43.22C326.156 42.1929 327.665 41.6519 329.21 41.71C330.192 41.7055 331.158 41.9497 332.02 42.42V45C331.681 44.6075 331.263 44.2907 330.793 44.0702C330.324 43.8497 329.813 43.7304 329.295 43.72C328.776 43.7096 328.261 43.8084 327.783 44.01C327.305 44.2116 326.875 44.5114 326.52 44.89C325.825 45.6665 325.45 46.6778 325.47 47.72C325.445 48.2508 325.536 48.7806 325.736 49.2728C325.936 49.765 326.242 50.2076 326.63 50.57C327.367 51.2603 328.341 51.64 329.35 51.63C329.859 51.6321 330.362 51.519 330.821 51.299C331.28 51.0791 331.683 50.758 332 50.36Z" fill="black"/>
<path d="M335.21 43.36C336.42 42.2728 337.989 41.6714 339.615 41.6714C341.241 41.6714 342.81 42.2728 344.02 43.36C345.119 44.5222 345.731 46.0608 345.731 47.66C345.731 49.2592 345.119 50.7978 344.02 51.96C342.805 53.0369 341.238 53.6315 339.615 53.6315C337.992 53.6315 336.425 53.0369 335.21 51.96C334.112 50.7978 333.5 49.2592 333.5 47.66C333.5 46.0608 334.112 44.5222 335.21 43.36ZM336.87 50.5C337.607 51.2118 338.591 51.6096 339.615 51.6096C340.639 51.6096 341.624 51.2118 342.36 50.5C343.053 49.7144 343.436 48.7027 343.436 47.655C343.436 46.6073 343.053 45.5956 342.36 44.81C341.628 44.0971 340.647 43.6982 339.625 43.6982C338.603 43.6982 337.622 44.0971 336.89 44.81C336.197 45.5956 335.814 46.6073 335.814 47.655C335.814 48.7027 336.197 49.7144 336.89 50.5H336.87Z" fill="black"/>
<path d="M347.2 53.38L349.33 41.73H350.88L353.98 49.21L357.23 41.73H358.77L360.69 53.38H358.43L357.43 46.32L354.29 53.53H353.67L350.67 46.32L349.51 53.38H347.2Z" fill="black"/>
<path d="M362.63 53.21C362.442 53.0226 362.313 52.7833 362.261 52.5228C362.209 52.2622 362.236 51.992 362.337 51.7465C362.439 51.501 362.612 51.2914 362.833 51.1442C363.054 50.997 363.314 50.919 363.58 50.92C363.757 50.9171 363.932 50.9501 364.095 51.0172C364.259 51.0842 364.407 51.1839 364.53 51.31C364.78 51.5628 364.921 51.9042 364.921 52.26C364.921 52.6158 364.78 52.9572 364.53 53.21C364.407 53.3361 364.259 53.4357 364.095 53.5028C363.932 53.5698 363.757 53.6029 363.58 53.6C363.403 53.6047 363.227 53.5724 363.064 53.5053C362.9 53.4381 362.753 53.3375 362.63 53.21Z" fill="black"/>
<path d="M367.05 41.93H369.28V49.12C369.243 49.7357 369.439 50.3428 369.83 50.82C370.062 51.0692 370.343 51.268 370.655 51.4039C370.967 51.5398 371.304 51.61 371.645 51.61C371.986 51.61 372.322 51.5398 372.635 51.4039C372.947 51.268 373.228 51.0692 373.46 50.82C373.851 50.3428 374.047 49.7357 374.01 49.12V41.93H376.25V48.93C376.313 50.0174 376.01 51.0946 375.39 51.99C374.967 52.5277 374.412 52.9478 373.78 53.21C372.412 53.7696 370.878 53.7696 369.51 53.21C368.879 52.9506 368.325 52.534 367.9 52C367.283 51.1033 366.984 50.0262 367.05 48.94V41.93Z" fill="black"/>
<path d="M386.6 53.38L385.6 50.97H381L380 53.38H377.58L382.58 41.69H384.27L389 53.38H386.6ZM381.67 49.16H384.93L383.32 45L381.67 49.16Z" fill="black"/>
<path d="M277.03 1.13998H125.83C104.567 1.13998 87.3301 18.377 87.3301 39.64V40.37C87.3301 61.6329 104.567 78.87 125.83 78.87H277.03C298.293 78.87 315.53 61.6329 315.53 40.37V39.64C315.53 18.377 298.293 1.13998 277.03 1.13998Z" stroke="#39B5FD" stroke-width="1.01" stroke-miterlimit="10"/>
<path d="M3.07006 41.94C3.07506 34.8809 4.95183 27.9493 8.50904 21.852C12.0662 15.7546 17.1767 10.7096 23.3193 7.23116C29.4619 3.75275 36.4171 1.96536 43.4757 2.05124C50.5343 2.13711 57.4439 4.09316 63.5001 7.71999C59.1498 4.52698 54.197 2.2496 48.9413 1.02561C43.6856 -0.198381 38.2363 -0.34355 32.9229 0.598886C27.6095 1.54132 22.5425 3.55177 18.0284 6.50863C13.5143 9.46549 9.64687 13.3073 6.6601 17.8017C3.67332 22.2961 1.62926 27.3496 0.651556 32.6566C-0.326148 37.9636 -0.217174 43.4138 0.971885 48.6775C2.16094 53.9412 4.40538 58.909 7.56942 63.2804C10.7335 67.6518 14.7514 71.3359 19.3801 74.11C14.3233 70.408 10.211 65.5655 7.37712 59.9759C4.5432 54.3862 3.06757 48.207 3.07006 41.94Z" fill="#39B5FD"/>
<path d="M45.0002 77.12C38.3666 77.1255 31.8504 75.3698 26.1176 72.0323C20.3847 68.6948 15.6406 63.8952 12.37 58.1239C9.09943 52.3526 7.41962 45.8165 7.50223 39.1834C7.58484 32.5503 9.42689 26.0581 12.8402 20.37C9.85258 24.4581 7.72429 29.1091 6.58377 34.0424C5.44326 38.9757 5.31417 44.0889 6.2043 49.0735C7.09442 54.058 8.9853 58.8105 11.7628 63.0441C14.5403 67.2777 18.1469 70.9047 22.3648 73.706C26.5826 76.5073 31.3244 78.425 36.3039 79.3432C41.2833 80.2614 46.3972 80.1612 51.3368 79.0485C56.2765 77.9358 60.9394 75.8337 65.0443 72.8692C69.1491 69.9047 72.6107 66.1392 75.2202 61.8C71.7432 66.5508 67.1944 70.4142 61.9434 73.0762C56.6924 75.7382 50.8874 77.1236 45.0002 77.12Z" fill="#73CF78"/>
<path d="M77.4199 40.48C76.8956 46.6353 74.7472 52.5413 71.1942 57.5949C67.6411 62.6486 62.8107 66.6689 57.196 69.2454C51.5813 71.8219 45.3835 72.8624 39.2352 72.2606C33.0869 71.6588 27.2085 69.4363 22.2 65.82C25.7567 68.9097 29.9023 71.2473 34.3867 72.6918C38.8712 74.1363 43.6017 74.6579 48.2931 74.2252C52.9846 73.7924 57.5398 72.4142 61.6843 70.1737C65.8289 67.9331 69.4768 64.8766 72.4084 61.1884C75.3399 57.5002 77.4943 53.2566 78.7418 48.7133C79.9892 44.1701 80.3039 39.4214 79.6667 34.7533C79.0296 30.0852 77.454 25.5944 75.0347 21.5516C72.6154 17.5088 69.4026 13.9978 65.5899 11.23C69.7261 14.8293 72.9535 19.3547 75.0092 24.4377C77.065 29.5206 77.891 35.0173 77.4199 40.48Z" fill="#F6D828"/>
</svg>
