<svg width="50" height="50" viewBox="0 0 50 50" fill="none" xmlns="http://www.w3.org/2000/svg">
<path d="M3.17072 28.3984C2.55569 28.3984 2.0405 28.1892 1.62517 27.7706C1.20984 27.3521 1.00145 26.8322 1.00001 26.2109C0.99856 25.5897 1.20695 25.0705 1.62517 24.6534C2.0434 24.2364 2.55858 24.0264 3.17072 24.0234H10.7682C11.3833 24.0234 11.8992 24.2334 12.316 24.6534C12.7327 25.0734 12.9404 25.5926 12.939 26.2109C12.9375 26.8293 12.7291 27.3492 12.3138 27.7706C11.8985 28.1921 11.3833 28.4014 10.7682 28.3984H3.17072ZM14.567 43C12.7581 43 11.2205 42.362 9.95422 41.0859C8.68796 39.8099 8.05484 38.2604 8.05484 36.4375H5.34144C4.61787 36.4375 4.03901 36.1641 3.60487 35.6172C3.17073 35.0703 3.0441 34.4505 3.22499 33.7578L3.7134 31.6797H10.4969C12.0164 31.6797 13.3007 31.151 14.3499 30.0938C15.3991 29.0365 15.9237 27.7422 15.9237 26.2109C15.9237 25.737 15.8694 25.2995 15.7609 24.8984C15.6524 24.4974 15.5076 24.0964 15.3267 23.6953H17.3889C18.9084 23.6953 20.1928 23.1667 21.2419 22.1094C22.2911 21.0521 22.8157 19.7578 22.8157 18.2266C22.8157 16.6953 22.2911 15.401 21.2419 14.3438C20.1928 13.2865 18.9084 12.7578 17.3889 12.7578H9.1402L9.46581 11.4453C9.68288 10.4245 10.1807 9.59542 10.9593 8.95813C11.7378 8.32083 12.651 8.00146 13.6987 8H35.7315C36.4551 8 37.0339 8.27344 37.4681 8.82031C37.9022 9.36719 38.0288 9.98698 37.8479 10.6797L36.437 16.75H40.6156C41.303 16.75 41.9542 16.9053 42.5692 17.2159C43.1843 17.5266 43.6908 17.9546 44.0888 18.5L48.1588 23.9141C48.5568 24.4245 48.8101 24.9808 48.9186 25.5831C49.0271 26.1854 49.0271 26.7957 48.9186 27.4141L47.4534 34.6875C47.3448 35.1979 47.0916 35.6172 46.6936 35.9453C46.2956 36.2734 45.8434 36.4375 45.3369 36.4375H42.7863C42.7863 38.2604 42.1532 39.8099 40.8869 41.0859C39.6207 42.362 38.0831 43 36.2742 43C34.4652 43 32.9276 42.362 31.6614 41.0859C30.3951 39.8099 29.762 38.2604 29.762 36.4375H21.0791C21.0791 38.2604 20.446 39.8099 19.1798 41.0859C17.9135 42.362 16.3759 43 14.567 43ZM7.51216 20.4141C6.89712 20.4141 6.38194 20.2041 5.96661 19.7841C5.55128 19.3641 5.34289 18.8449 5.34144 18.2266C5.33999 17.6082 5.54838 17.0891 5.96661 16.6691C6.38483 16.2491 6.90002 16.0391 7.51216 16.0391H17.2804C17.8954 16.0391 18.4113 16.2491 18.8281 16.6691C19.2449 17.0891 19.4526 17.6082 19.4511 18.2266C19.4497 18.8449 19.2413 19.3648 18.8259 19.7862C18.4106 20.2077 17.8954 20.417 17.2804 20.4141H7.51216ZM14.567 38.625C15.182 38.625 15.6979 38.415 16.1147 37.995C16.5315 37.575 16.7392 37.0558 16.7377 36.4375C16.7363 35.8192 16.5279 35.3 16.1125 34.88C15.6972 34.46 15.182 34.25 14.567 34.25C13.952 34.25 13.4368 34.46 13.0214 34.88C12.6061 35.3 12.3977 35.8192 12.3963 36.4375C12.3948 37.0558 12.6032 37.5757 13.0214 37.9972C13.4397 38.4186 13.9548 38.6279 14.567 38.625ZM36.2742 38.625C36.8892 38.625 37.4051 38.415 37.8219 37.995C38.2387 37.575 38.4463 37.0558 38.4449 36.4375C38.4434 35.8192 38.2351 35.3 37.8197 34.88C37.4044 34.46 36.8892 34.25 36.2742 34.25C35.6591 34.25 35.1439 34.46 34.7286 34.88C34.3133 35.3 34.1049 35.8192 34.1035 36.4375C34.102 37.0558 34.3104 37.5757 34.7286 37.9972C35.1468 38.4186 35.662 38.6279 36.2742 38.625ZM33.9406 27.6875H44.4144L44.6314 26.5391L40.6156 21.125H35.4601L33.9406 27.6875Z" fill="#334CCC"/>
</svg>
