<svg width="50" height="50" viewBox="0 0 50 50" fill="none" xmlns="http://www.w3.org/2000/svg">
<path d="M47.6667 27.625H41V35.5L38.3333 33.7527L35.6667 35.5V27.625H29C28.2667 27.625 27.6667 28.2156 27.6667 28.9375V44.6875C27.6667 45.4094 28.2667 46 29 46H47.6667C48.4 46 49 45.4094 49 44.6875V28.9375C49 28.2156 48.4 27.625 47.6667 27.625ZM15.6667 22.375H34.3333C35.0667 22.375 35.6667 21.7844 35.6667 21.0625V5.3125C35.6667 4.59062 35.0667 4 34.3333 4H27.6667V11.875L25 10.1277L22.3333 11.875V4H15.6667C14.9333 4 14.3333 4.59062 14.3333 5.3125V21.0625C14.3333 21.7844 14.9333 22.375 15.6667 22.375ZM21 27.625H14.3333V35.5L11.6667 33.7527L9 35.5V27.625H2.33333C1.6 27.625 1 28.2156 1 28.9375V44.6875C1 45.4094 1.6 46 2.33333 46H21C21.7333 46 22.3333 45.4094 22.3333 44.6875V28.9375C22.3333 28.2156 21.7333 27.625 21 27.625Z" fill="#334CCC"/>
</svg>
