<svg width="50" height="50" viewBox="0 0 50 50" fill="none" xmlns="http://www.w3.org/2000/svg">
<path d="M25 2C37.7029 2 48 12.2971 48 25C48 37.7029 37.7029 48 25 48C12.2971 48 2 37.7029 2 25C2 12.2971 12.2971 2 25 2ZM22.861 14.8363C22.4356 14.8375 22.028 15.007 21.7272 15.3079C21.4263 15.6087 21.2568 16.0163 21.2556 16.4417V29.278C21.2556 30.1658 21.9732 30.8834 22.861 30.8834H35.6973C35.9131 30.8916 36.1283 30.8561 36.3301 30.7792C36.5318 30.7022 36.716 30.5854 36.8716 30.4356C37.0271 30.2858 37.1508 30.1062 37.2354 29.9075C37.3199 29.7088 37.3635 29.4951 37.3635 29.2792C37.3635 29.0632 37.3199 28.8495 37.2354 28.6508C37.1508 28.4521 37.0271 28.2725 36.8716 28.1227C36.716 27.9729 36.5318 27.8561 36.3301 27.7791C36.1283 27.7022 35.9131 27.6667 35.6973 27.6749H24.4641V16.4417C24.4629 16.0167 24.2937 15.6094 23.9934 15.3087C23.6931 15.0079 23.286 14.8381 22.861 14.8363Z" fill="#334CCC"/>
</svg>
